<?xml version="1.0" standalone="no" ?>
<!DOCTYPE svg PUBLIC "-//W3C//DTD SVG 1.1//EN" "http://www.w3.org/Graphics/SVG/1.1/DTD/svg11.dtd">
<svg width="77px" height="30px" viewBox="0 0 77 30" style="background-color: #ffffffff" xmlns="http://www.w3.org/2000/svg" xmlns:xlink="http://www.w3.org/1999/xlink" version="1.1" >
<path stroke="transparent" fill="#000000" transform="matrix(0.05 0 0 0.05 -178 -89)" d="M 3760.8,2323.42 L 3753.87,2335.42 L 3608.14,2083 L 3618.53,2077 L 3760.8,2323.42 Z " />
<path stroke="transparent" fill="#000000" transform="matrix(0.05 0 0 0.05 -178 -89)" d="M 4041.87,2323.42 L 4048.8,2335.42 L 3753.87,2335.42 L 3760.8,2323.42 L 4041.87,2323.42 Z " />
<path stroke="transparent" fill="#000000" transform="matrix(0.05 0 0 0.05 -178 -89)" d="M 4015.4,2271.58 L 4015.4,2283.58 L 3787.26,2283.58 L 3787.26,2271.58 L 4015.4,2271.58 Z " />
<path stroke="transparent" fill="#000000" transform="matrix(0.05 0 0 0.05 -178 -89)" d="M 4185.87,2074 L 4192.8,2086 L 4048.8,2335.42 L 4041.87,2323.42 L 4185.87,2074 Z " />
<path stroke="transparent" fill="#000000" transform="matrix(0.05 0 0 0.05 -178 -89)" d="M 4446.22,2022.28 L 4448.58,2034.04 L 4193.17,2085.35 L 4185.49,2074.65 L 4446.22,2022.28 Z " />
<path stroke="transparent" fill="#000000" transform="matrix(0.05 0 0 0.05 -178 -89)" d="M 4474.02,2073.73 L 4480.64,2086.27 L 4190.51,2034.04 L 4188.15,2022.28 L 4474.02,2073.73 Z " />
<path stroke="transparent" fill="#000000" transform="matrix(0.05 0 0 0.05 -178 -89)" d="M 4617.87,1824.58 L 4624.8,1836.58 L 4480.8,2086 L 4473.87,2074 L 4617.87,1824.58 Z " />
<path stroke="transparent" fill="#000000" transform="matrix(0.05 0 0 0.05 -178 -89)" d="M 4912.8,1824.58 L 4905.87,1836.58 L 4624.8,1836.58 L 4617.87,1824.58 L 4912.8,1824.58 Z " />
<path stroke="transparent" fill="#000000" transform="matrix(0.05 0 0 0.05 -178 -89)" d="M 4879.4,1876.42 L 4879.4,1888.42 L 4651.26,1888.42 L 4651.26,1876.42 L 4879.4,1876.42 Z " />
<path stroke="transparent" fill="#000000" transform="matrix(0.05 0 0 0.05 -178 -89)" d="M 5058.53,2077 L 5048.14,2083 L 4905.87,1836.58 L 4912.8,1824.58 L 5058.53,2077 Z " />
</svg>
